<svg t="1605022501263" class="icon" viewBox="0 0 1024 1024" version="1.1" xmlns="http://www.w3.org/2000/svg" p-id="8553" width="32" height="32"><path d="M143.36 184.32h737.28a81.92 81.92 0 0 1 81.92 81.92v327.68c0 135.72096-110.03904 245.76-245.76 245.76H307.2C171.47904 839.68 61.44 729.64096 61.44 593.92V266.24a81.92 81.92 0 0 1 81.92-81.92z m213.27872 401.12128L283.19744 512l73.44128-73.44128a40.96 40.96 0 0 0-57.91744-57.91744l-102.4 102.4a40.96 40.96 0 0 0 0 57.91744l102.4 102.4a40.96 40.96 0 0 0 57.91744-57.91744z m310.72256-146.88256L740.80256 512l-73.44128 73.44128a40.96 40.96 0 0 0 57.91744 57.91744l102.4-102.4a40.96 40.96 0 0 0 0-57.91744l-102.4-102.4a40.96 40.96 0 0 0-57.91744 57.91744z m-152.43264-44.17536l-81.92 204.8a40.96 40.96 0 0 0 76.06272 30.43328l81.92-204.8a40.96 40.96 0 0 0-76.06272-30.43328z" p-id="8554" data-spm-anchor-id="a313x.7781069.0.i3"></path></svg>