<svg t="1604932710424" class="icon" viewBox="0 0 1024 1024" version="1.1" xmlns="http://www.w3.org/2000/svg" p-id="11463" width="32" height="32"><path d="M907.337143 942.665143l-126.244572-93.037714-127.122285 92.891428a6.948571 6.948571 0 0 1-10.971429-5.632v-161.792a6.875429 6.875429 0 0 1 8.996572-6.582857l25.453714 14.848c2.925714 0.877714 5.12 3.584 5.12 6.656v86.308571l94.573714-71.241142a7.021714 7.021714 0 0 1 8.192 0l94.793143 68.315428-1.755429-83.382857c0-2.925714 1.901714-5.558857 4.681143-6.582857l26.038857-15.579429a6.948571 6.948571 0 0 1 9.216 6.582857v162.596572c0 2.633143-1.462857 4.973714-3.803428 6.144a5.924571 5.924571 0 0 1-3.072 0.804571 6.875429 6.875429 0 0 1-4.096-1.316571zM18.285714 830.537143v-680.228572C18.285714 91.428571 66.194286 43.593143 125.220571 43.52h593.334858c59.099429 0 106.934857 47.908571 107.008 106.934857v212.114286a6.948571 6.948571 0 0 1-6.948572 6.948571h-44.032a6.948571 6.948571 0 0 1-6.948571-6.875428V150.381714c0-27.062857-21.942857-40.96-49.005715-40.96H125.220571c-27.062857 0-41.179429 13.897143-41.179428 40.96v680.228572c0 26.989714 14.116571 38.034286 41.179428 38.034285h460.8c3.803429 0 6.875429 3.145143 6.875429 6.948572v55.003428a6.948571 6.948571 0 0 1-6.948571 6.948572H125.220571A107.081143 107.081143 0 0 1 18.285714 830.537143z m762.368-52.662857a188.708571 188.708571 0 0 1-188.562285-188.489143 188.708571 188.708571 0 0 1 188.562285-188.489143 188.708571 188.708571 0 0 1 188.489143 188.489143 188.708571 188.708571 0 0 1-188.489143 188.489143z m0-321.243429a132.900571 132.900571 0 0 0-132.754285 132.754286c0 73.142857 59.538286 132.754286 132.754285 132.754286 73.142857 0 132.754286-59.538286 132.754286-132.754286a132.900571 132.900571 0 0 0-132.754286-132.754286zM182.857143 756.224c-3.876571 0-6.948571-3.364571-6.948572-7.533714v-52.297143c0-4.169143 3.072-7.533714 6.948572-7.533714h348.891428c3.803429 0 6.948571 3.364571 6.948572 7.533714v52.297143c0 4.169143-3.145143 7.533714-6.948572 7.533714H182.857143z m597.796571-85.357714a81.554286 81.554286 0 0 1 0-162.962286 81.554286 81.554286 0 0 1 0 162.962286z m0-128.438857a47.030857 47.030857 0 1 0 0.146286 93.988571 47.030857 47.030857 0 0 0-0.146286-93.988571zM182.857143 597.577143a6.656 6.656 0 0 1-4.900572-2.194286 7.826286 7.826286 0 0 1-2.048-5.339428v-52.370286c0-4.096 3.072-7.460571 6.948572-7.460572h348.891428c3.803429 0 6.948571 3.364571 6.948572 7.460572v52.370286c0 1.974857-0.731429 3.876571-2.048 5.339428a6.656 6.656 0 0 1-4.900572 2.194286H182.857143z m0-146.870857c-3.876571 0-6.948571-3.364571-6.948572-7.460572v-52.370285c0-4.169143 3.072-7.533714 6.948572-7.533715h348.891428c3.803429 0 6.948571 3.364571 6.948572 7.533715v52.370285c0 4.096-3.145143 7.460571-6.948572 7.460572H182.857143z m0-153.307429c-3.876571 0-6.948571-3.364571-6.948572-7.533714v-52.370286c0-4.096 3.072-7.460571 6.948572-7.460571h478.134857c3.876571 0 6.948571 3.364571 6.948571 7.460571v52.370286c0 1.974857-0.731429 3.876571-2.048 5.339428a6.656 6.656 0 0 1-4.900571 2.194286H182.857143z"></path></svg>