<svg t="1604916665299" class="icon" viewBox="0 0 1024 1024" version="1.1" xmlns="http://www.w3.org/2000/svg" p-id="4711" width="32" height="32" data-spm-anchor-id="a313x.7781069.0.i31"><path d="M956.998515 559.444569c-4.204765 4.189416-9.657964 6.332219-15.205307 6.332219-5.531993 0-10.984169-2.142803-15.189957-6.332219L512.004605 144.845922 97.421308 559.444569c-8.362458 8.394181-22.032806 8.394181-30.395264 0-8.394181-8.362458-8.394181-22.032806 0-30.395264l429.788603-429.788603c8.362458-8.394181 22.032806-8.394181 30.395264 0l429.788603 429.788603C965.392696 537.411763 965.392696 551.08211 956.998515 559.444569L956.998515 559.444569zM769.877767 931.049005 619.499851 931.049005c-11.879562 0-21.537526-9.561773-21.537526-21.441335s9.657964-21.537526 21.537526-21.537526L769.877767 888.070144c23.728424 0 42.97886-19.25146 42.97886-42.97886L812.856627 608.67583c0-11.799744 9.657964-21.457708 21.537526-21.457708s21.441335 9.657964 21.441335 21.457708l0 236.415454C855.835488 892.530736 817.317219 931.049005 769.877767 931.049005L769.877767 931.049005zM619.499851 716.154703 426.046884 716.154703l0 193.452967c0 11.879562-9.561773 21.441335-21.441335 21.441335L254.131443 931.049005c-47.424102 0-85.957721-38.518269-85.957721-85.957721L168.173722 436.840206c0-11.879562 9.657964-21.537526 21.537526-21.537526 11.799744 0 21.441335 9.657964 21.441335 21.537526l0 408.251078c0 23.728424 19.266809 42.97886 42.97886 42.97886l128.936581 0L383.068024 694.63355c0-11.799744 9.657964-21.457708 21.537526-21.457708l214.894302 0c11.799744 0 21.441335 9.657964 21.441335 21.457708C640.941186 706.59293 631.299595 716.154703 619.499851 716.154703L619.499851 716.154703z" p-id="4712" data-spm-anchor-id="a313x.7781069.0.i30" class=""></path></svg>