<?xml version="1.0" standalone="no"?><!DOCTYPE svg PUBLIC "-//W3C//DTD SVG 1.1//EN" "http://www.w3.org/Graphics/SVG/1.1/DTD/svg11.dtd"><svg t="1640797101047" class="icon" viewBox="0 0 1024 1024" version="1.1" xmlns="http://www.w3.org/2000/svg" p-id="2397" width="256" height="256" xmlns:xlink="http://www.w3.org/1999/xlink"><defs><style type="text/css"></style></defs><path d="M511.998977 98.855472l-0.355087 0-0.160659 0c-0.163729 0-0.323365 0.032746-0.483001 0.032746C283.270599 99.403964 98.855472 284.157805 98.855472 512c0 227.777727 184.411033 412.564313 412.144758 413.111782 0.163729 0 0.323365 0.031722 0.483001 0.031722l0.160659 0 0.355087 0c228.13793 0 413.144528-185.010691 413.144528-413.143505C925.143505 283.83444 740.136907 98.855472 511.998977 98.855472L511.998977 98.855472 511.998977 98.855472zM528.524348 346.096483c43.802622-1.195222 86.421278-6.971785 127.465067-16.97665 12.375865 48.707328 20.042475 104.836697 21.25407 166.354795L528.524348 495.474628 528.524348 346.096483 528.524348 346.096483 528.524348 346.096483zM528.524348 313.046762 528.524348 134.523833c44.557822 12.32777 89.682555 71.715345 118.459972 162.801876C608.813976 306.527279 569.21305 311.883263 528.524348 313.046762L528.524348 313.046762 528.524348 313.046762zM495.474628 134.131907l0 178.914856c-41.024345-1.163499-80.94966-6.619768-119.410624-15.97688C405.067572 205.435882 450.625164 145.82011 495.474628 134.131907L495.474628 134.131907 495.474628 134.131907zM495.474628 346.06476l0 149.409868-149.750629 0c1.211595-61.618383 8.909927-117.808126 21.289885-166.550247C408.373875 339.02953 451.321012 344.901261 495.474628 346.06476L495.474628 346.06476 495.474628 346.06476zM312.462454 495.474628 132.328841 495.474628c3.645017-84.953857 35.291784-162.804946 85.97-224.455051 36.795021 20.269649 75.832106 36.858466 116.728538 49.257867C321.680397 372.981806 313.674049 432.406221 312.462454 495.474628L312.462454 495.474628 312.462454 495.474628zM312.462454 528.524348c1.211595 63.037708 9.217942 122.461099 22.564925 175.165462-40.880059 12.431124-79.933517 29.015847-116.728538 49.28652-50.678216-61.646012-82.324984-139.501194-85.97-224.451982L312.462454 528.524348 312.462454 528.524348 312.462454 528.524348zM345.723999 528.524348l149.750629 0 0 149.21544c-44.153616 1.162476-87.117127 7.071046-128.477117 17.203824C354.618577 646.240377 346.935594 590.079286 345.723999 528.524348L345.723999 528.524348 345.723999 528.524348zM495.474628 710.760856l0 179.106214c-44.881187-11.715833-90.470501-71.39505-119.458719-163.129334C414.493246 717.376531 454.43391 711.924355 495.474628 710.760856L495.474628 710.760856 495.474628 710.760856zM528.524348 889.48026 528.524348 710.760856c40.704051 1.163499 80.304977 6.551206 118.491695 15.749706C618.254999 817.660538 573.101613 877.148397 528.524348 889.48026L528.524348 889.48026 528.524348 889.48026zM528.524348 677.739788 528.524348 528.524348l148.719136 0c-1.215688 61.454654-8.878205 117.520577-21.205974 166.19516C614.96507 684.714643 572.34232 678.902264 528.524348 677.739788L528.524348 677.739788 528.524348 677.739788zM710.50503 528.524348l181.169199 0c-3.64604 84.954881-35.280528 162.774247-85.953627 224.420259-37.098943-20.398586-76.464509-37.115316-117.712959-49.575092C701.31881 650.725528 709.293435 591.434144 710.50503 528.524348L710.50503 528.524348 710.50503 528.524348zM710.50503 495.474628c-1.211595-63.004963-9.198499-122.329093-22.529109-175.004803 41.215704-12.459776 80.577177-29.144784 117.64849-49.54644 50.721195 61.650105 82.384335 139.532917 86.049818 224.551242L710.50503 495.474628 710.50503 495.474628 710.50503 495.474628zM782.851755 245.684562c-32.877805 17.492396-67.586304 31.953759-103.833857 42.926672-19.318998-62.165852-46.447868-112.903419-78.514191-146.21306C670.867264 159.278633 733.693148 195.685821 782.851755 245.684562L782.851755 245.684562 782.851755 245.684562zM422.188508 142.718469c-31.906687 33.245172-58.904575 83.758636-78.159104 145.605216-35.891442-10.945283-70.296019-25.27464-102.882182-42.639123C289.981441 196.010209 352.343767 159.698189 422.188508 142.718469L422.188508 142.718469 422.188508 142.718469zM241.034659 778.187525c32.613792-17.396205 67.038836-31.726585 102.963023-42.670845 19.254529 61.905932 46.252417 112.482841 78.190827 145.764851C352.295672 864.269066 289.901623 827.925323 241.034659 778.187525L241.034659 778.187525 241.034659 778.187525zM600.487334 881.573173c32.114418-33.30964 59.244312-84.083024 78.57866-146.345066 36.263925 11.004635 70.991868 25.435299 103.881952 42.99114C733.789339 828.249711 670.915359 864.720344 600.487334 881.573173L600.487334 881.573173 600.487334 881.573173zM600.487334 881.573173" p-id="2398" fill="#1296db"></path></svg>