<svg t="1604973877609" class="icon" viewBox="0 0 1024 1024" version="1.1" xmlns="http://www.w3.org/2000/svg" p-id="2820" width="32" height="32"><path d="M642.196727 617.715733a37.793885 37.793885 0 0 0 15.495493-37.793885l-15.495493-95.61853L710.603659 417.78608a40.061518 40.061518 0 0 0 11.338166-41.195335 37.793885 37.793885 0 0 0-31.746864-26.833659l-95.618529-14.361676-43.840907-85.79212a40.817396 40.817396 0 0 0-70.674566 0L436.597991 336.151288 344.002972 349.757086a37.793885 37.793885 0 0 0-31.746863 26.833659A40.061518 40.061518 0 0 0 320.192824 417.78608l69.162811 68.028993-16.251371 94.106775a37.793885 37.793885 0 0 0 15.495493 37.793885 40.061518 40.061518 0 0 0 23.05427 7.558777 40.439457 40.439457 0 0 0 18.519004-4.535266l85.792119-44.596785 84.658303 44.596785a37.793885 37.793885 0 0 0 41.573274-3.023511z m-108.468451-75.58777a37.793885 37.793885 0 0 0-37.793885 0l-85.414181 43.462968 15.873432-92.21708a37.793885 37.793885 0 0 0-11.338165-34.770375l-67.651055-71.430443 94.862652-13.605799a37.793885 37.793885 0 0 0 29.47923-21.542514L515.587211 266.610539l42.329152 85.792119a37.793885 37.793885 0 0 0 29.47923 21.542515l95.61853 16.251371L615.741007 455.579965a37.793885 37.793885 0 0 0-11.338165 34.770375l13.983737 95.61853z"></path><path d="M940.012543 871.312703l-100.153796-173.473933A424.425332 424.425332 0 1 0 90.783941 426.478674a421.023882 421.023882 0 0 0 94.862652 267.202769L82.469286 873.202398a24.188087 24.188087 0 0 0 0 25.699842 26.45572 26.45572 0 0 0 29.101292 10.204349l134.168292-41.195335 32.880681 140.215314a26.077781 26.077781 0 0 0 22.298392 15.873432 24.566025 24.566025 0 0 0 21.164576-12.094043l101.287612-171.58424a415.732738 415.732738 0 0 0 92.21708 10.582288 403.638695 403.638695 0 0 0 84.658303-9.448471l98.642041 170.450423A24.566025 24.566025 0 0 0 721.941825 1022.488245a26.45572 26.45572 0 0 0 22.676331-18.896943l32.124803-136.813865L910.911252 909.106589h2.645571a26.077781 26.077781 0 0 0 24.943965-10.582288 24.188087 24.188087 0 0 0 1.511755-27.211598zM306.209087 964.6636l-27.967475-118.294861a24.566025 24.566025 0 0 0-25.699842-18.896943h-4.157328l-116.783105 35.904192 80.500976-139.837376a10.204349 10.204349 0 0 1 3.02351 2.645572 428.582659 428.582659 0 0 0 34.014497 30.613047l4.913205 3.40145a371.135954 371.135954 0 0 0 35.148314 24.943964l4.535266 3.023511c12.849921 7.558777 26.077781 14.739615 37.793885 21.164576l8.314655 3.779388a386.631447 386.631447 0 0 0 41.951212 16.251371h2.267634z m113.381656-162.891645v-1.133817a387.387324 387.387324 0 0 1-188.969427-113.381656l-5.669082-6.42496a387.009385 387.009385 0 1 1 680.289935-253.219032 381.718241 381.718241 0 0 1-99.397919 258.132237 386.631447 386.631447 0 0 1-195.772325 115.27135 380.584425 380.584425 0 0 1-187.83561 0.755878z m348.837561 25.321903a25.321903 25.321903 0 0 0-27.967475 19.274881l-27.589536 118.6728L638.795277 833.518818h2.645572a395.32404 395.32404 0 0 0 41.951213-15.117554l7.558777-3.40145a415.732738 415.732738 0 0 0 40.817396-21.164575 425.559148 425.559148 0 0 0 37.793886-26.077781l6.802899-5.291144a412.709227 412.709227 0 0 0 34.014497-29.479231l2.267633-1.889694 75.58777 134.546232z"></path></svg>