<svg t="1604916688415" class="icon" viewBox="0 0 1024 1024" version="1.1" xmlns="http://www.w3.org/2000/svg" p-id="1632" width="32" height="32"><path d="M617.728 635.008a173.269333 173.269333 0 0 1-93.312-16.981333 61.397333 61.397333 0 0 1-22.869333-43.093334 9.472 9.472 0 0 0-9.642667-9.386666 1997.909333 1997.909333 0 0 0-40.533333 0 9.002667 9.002667 0 0 0-9.856 7.936 99.797333 99.797333 0 0 0 32.128 78.677333 170.282667 170.282667 0 0 0 95.061333 35.797333 343.978667 343.978667 0 0 0 108.074667-4.608 133.376 133.376 0 0 0 71.594666-38.570666 99.754667 99.754667 0 0 0 16.896-95.189334 79.744 79.744 0 0 0-52.48-46.72c-54.613333-19.2-113.664-17.706667-169.386666-32.298666-9.685333-2.986667-21.504-6.314667-25.813334-16.554667a36.48 36.48 0 0 1 12.117334-40.746667 109.141333 109.141333 0 0 1 57.6-14.336 173.653333 173.653333 0 0 1 80.341333 11.52 61.269333 61.269333 0 0 1 29.312 42.325334 10.368 10.368 0 0 0 9.728 10.069333c13.397333 0.256 26.794667 0.042667 40.234667 0.085333a9.728 9.728 0 0 0 10.538666-7.168 103.850667 103.850667 0 0 0-50.645333-89.856 250.88 250.88 0 0 0-137.301333-21.034666 149.546667 149.546667 0 0 0-92.842667 37.333333 92.8 92.8 0 0 0-18.517333 96.512 82.346667 82.346667 0 0 0 51.968 45.312c54.485333 19.669333 114.176 13.354667 169.130666 30.762667 10.752 3.626667 23.210667 9.216 26.496 21.12a42.24 42.24 0 0 1-11.52 40.362666 126.72 126.72 0 0 1-76.501333 18.730667z m248.277333-360.32q-159.488-90.197333-319.104-180.266667a71.552 71.552 0 0 0-69.845333 0L159.146667 273.962667a65.792 65.792 0 0 0-34.346667 57.258666v361.6a66.261333 66.261333 0 0 0 35.669333 57.813334c30.421333 16.554667 59.989333 34.816 91.008 50.304a130.730667 130.730667 0 0 0 116.821334 3.2 90.752 90.752 0 0 0 42.453333-81.962667c0.213333-119.338667 0-238.677333 0.085333-357.973333a9.386667 9.386667 0 0 0-8.832-10.88 1773.013333 1773.013333 0 0 0-40.661333 0 8.96 8.96 0 0 0-9.728 9.088c-0.170667 118.570667 0.042667 237.141333-0.085333 355.754666a40.106667 40.106667 0 0 1-26.026667 37.674667 65.365333 65.365333 0 0 1-52.906667-7.082667l-84.565333-47.786666a10.112 10.112 0 0 1-5.76-10.026667V333.098667a11.050667 11.050667 0 0 1 6.698667-11.093334q158.421333-89.258667 316.8-178.645333a11.008 11.008 0 0 1 12.458666 0l316.842667 178.602667a11.178667 11.178667 0 0 1 6.656 11.093333v357.888a10.325333 10.325333 0 0 1-5.717333 10.154667q-155.989333 88.234667-312.192 176.213333c-4.949333 2.730667-10.837333 7.210667-16.64 3.84-27.306667-15.445333-54.186667-31.488-81.408-47.061333a8.789333 8.789333 0 0 0-9.813334-0.597334 222.634667 222.634667 0 0 1-37.632 17.578667c-5.888 2.389333-13.141333 3.072-17.194666 8.533333a56.149333 56.149333 0 0 0 18.432 13.226667l95.402666 55.168a69.546667 69.546667 0 0 0 70.613334 1.962667q158.976-89.6 317.952-179.370667a66.389333 66.389333 0 0 0 35.669333-57.770667V331.221333a65.706667 65.706667 0 0 0-33.194667-56.533333z" p-id="1633"></path></svg>