<svg t="1604917382360" class="icon" viewBox="0 0 1036 1024" version="1.1" xmlns="http://www.w3.org/2000/svg" p-id="7439" width="32" height="32"><path d="M17.157247 279.050747l464.684805 218.677031a85.991347 85.991347 0 0 0 73.558863 0L1020.044279 279.050747a28.801921 28.801921 0 0 0 0-52.102468L555.359474 8.271249a85.908463 85.908463 0 0 0-73.558863 0L17.157247 226.948279a28.801921 28.801921 0 0 0 0 52.102468z m489.187159-218.708112a28.563632 28.563632 0 0 1 24.502354 0L940.269174 252.994333l-409.412054 192.7035a28.563632 28.563632 0 0 1-24.502354 0L96.932352 252.994333z" p-id="7440"></path><path d="M995.583367 485.947999L530.85712 704.707913a28.563632 28.563632 0 0 1-24.502354 0L41.618159 485.947999A28.791561 28.791561 0 1 0 17.157247 538.060828l464.684805 218.67703a85.991347 85.991347 0 0 0 73.558863 0L1020.044279 538.060828a28.791561 28.791561 0 1 0-24.502354-52.102468z" p-id="7441"></path><path d="M995.583367 744.95808L530.85712 963.717994a28.563632 28.563632 0 0 1-24.502354 0L41.618159 744.95808A28.791561 28.791561 0 0 0 17.157247 797.060548L481.842052 1015.737578a85.991347 85.991347 0 0 0 73.558863 0L1020.044279 797.060548a28.791561 28.791561 0 1 0-24.502354-52.102468z" p-id="7442"></path></svg>