<?xml version="1.0" standalone="no"?><!DOCTYPE svg PUBLIC "-//W3C//DTD SVG 1.1//EN" "http://www.w3.org/Graphics/SVG/1.1/DTD/svg11.dtd"><svg t="1640885176201" class="icon" viewBox="0 0 1024 1024" version="1.1" xmlns="http://www.w3.org/2000/svg" p-id="5731" width="64" height="64" xmlns:xlink="http://www.w3.org/1999/xlink"><defs><style type="text/css"></style></defs><path d="M512 955.733333c-121.924267 0-227.328-43.895467-313.326933-130.474666C112.162133 739.328 68.266667 634.197333 68.266667 512.853333c0-122.743467 43.8784-228.437333 130.440533-314.999466C284.706133 111.872 390.109867 68.266667 512 68.266667c121.873067 0 227.5328 43.588267 314.112 129.536C912.145067 284.450133 955.733333 390.126933 955.733333 512c0 121.890133-43.605333 227.293867-129.5872 313.2928C739.584 911.854933 633.890133 955.733333 512 955.733333z m0-853.333333c-112.503467 0-209.783467 40.226133-289.160533 119.586133C142.933333 301.909333 102.4 399.496533 102.4 512c0 112.776533 40.516267 209.7664 120.405333 289.1264C302.2336 881.1008 399.5136 921.6 512 921.6c112.520533 0 210.090667-40.516267 290.013867-120.439467C881.373867 721.800533 921.6 624.520533 921.6 512c0-112.5376-40.2432-210.1248-119.637333-290.065067C722.1248 142.6432 624.520533 102.4 512 102.4z" p-id="5732"></path><path d="M512 717.653333a34.133333 34.133333 0 0 1-24.132267-58.2656l112.401067-112.401066H342.186667a34.133333 34.133333 0 0 1 0-68.266667h258.082133l-112.401067-112.401067a34.133333 34.133333 0 1 1 48.264534-48.264533l170.615466 170.615467 0.512 0.529066 0.017067 0.017067A33.792 33.792 0 0 1 716.8 512.853333a34.013867 34.013867 0 0 1-9.506133 23.6544l-0.017067 0.017067-0.512 0.512-170.615467 170.615467A34.133333 34.133333 0 0 1 512 717.653333z" p-id="5733"></path></svg>